# MagicaVoxel @ Ephtracy

# group
o 

# material
mtllib Garry_Weapon.mtl
usemtl palette

# normals
vn -1 0 0
vn 1 0 0
vn 0 0 1
vn 0 0 -1
vn 0 -1 0
vn 0 1 0

# texcoords
vt 0.822266 0.5
vt 0.826172 0.5

# verts
v -0.2 0 -0.2
v -0.2 0 -0.4
v -0.2 0.2 -0.2
v -0.2 0.2 -0.3
v -0.2 0.3 0.5
v -0.2 0.3 -0.2
v -0.2 0.3 -0.3
v -0.2 0.4 -0.2
v -0.2 0.4 -0.4
v -0.2 0.6 0.5
v -0.2 0.6 -0.3
v -0.2 0.6 -0.4
v -0.2 0.7 -0.3
v -0.2 0.7 -0.4
v -0.1 0.1 -0.1
v -0.1 0.1 -0.2
v -0.1 0.2 0
v -0.1 0.2 -0.1
v -0.1 0.2 -0.2
v -0.1 0.2 -0.3
v -0.1 0.3 0
v -0.1 0.3 -0.1
v -0.1 0.3 -0.2
v -0.1 0.3 -0.3
v -0.1 0.6 0.5
v -0.1 0.6 0.4
v -0.1 0.7 0.5
v -0.1 0.7 0.4
v 0 0.6 -0.3
v 0 0.6 -0.4
v 0 0.7 -0.3
v 0 0.7 -0.4
v -0.1 0.6 -0.3
v -0.1 0.6 -0.4
v -0.1 0.7 -0.3
v -0.1 0.7 -0.4
v 0 0.1 -0.1
v 0 0.1 -0.2
v 0 0.2 0
v 0 0.2 -0.1
v 0 0.2 -0.2
v 0 0.3 0
v 0 0.3 -0.1
v 0 0.6 0.5
v 0 0.6 0.4
v 0 0.7 0.5
v 0 0.7 0.4
v 0.1 0 -0.2
v 0.1 0 -0.4
v 0.1 0.3 0.5
v 0.1 0.3 -0.2
v 0.1 0.4 -0.2
v 0.1 0.4 -0.4
v 0.1 0.6 0.5
v 0.1 0.6 -0.3
v 0.1 0.6 -0.4
v 0.1 0.7 -0.3
v 0.1 0.7 -0.4
v -0.2 0.3 0.5
v -0.2 0.6 0.5
v -0.1 0.4 0.5
v -0.1 0.5 0.5
v -0.1 0.6 0.5
v -0.1 0.7 0.5
v 0 0.4 0.5
v 0 0.5 0.5
v 0 0.6 0.5
v 0 0.7 0.5
v 0.1 0.3 0.5
v 0.1 0.6 0.5
v -0.1 0.2 0
v -0.1 0.3 0
v 0 0.2 0
v 0 0.3 0
v -0.1 0.1 -0.1
v -0.1 0.2 -0.1
v 0 0.1 -0.1
v 0 0.2 -0.1
v -0.2 0 -0.2
v -0.2 0.2 -0.2
v -0.1 0.1 -0.2
v -0.1 0.2 -0.2
v -0.1 0.3 -0.2
v 0 0.1 -0.2
v 0 0.2 -0.2
v 0.1 0 -0.2
v 0.1 0.3 -0.2
v -0.2 0.2 -0.3
v -0.2 0.3 -0.3
v -0.2 0.6 -0.3
v -0.2 0.7 -0.3
v -0.1 0.2 -0.3
v -0.1 0.3 -0.3
v -0.1 0.6 -0.3
v -0.1 0.7 -0.3
v 0 0.6 -0.3
v 0 0.7 -0.3
v 0.1 0.6 -0.3
v 0.1 0.7 -0.3
v -0.1 0.6 0.4
v -0.1 0.7 0.4
v 0 0.6 0.4
v 0 0.7 0.4
v -0.1 0.2 -0.1
v -0.1 0.3 -0.1
v 0 0.2 -0.1
v 0 0.3 -0.1
v -0.2 0 -0.4
v -0.2 0.4 -0.4
v -0.2 0.6 -0.4
v -0.2 0.7 -0.4
v -0.1 0.6 -0.4
v -0.1 0.7 -0.4
v 0 0.6 -0.4
v 0 0.7 -0.4
v 0.1 0 -0.4
v 0.1 0.4 -0.4
v 0.1 0.6 -0.4
v 0.1 0.7 -0.4
v -0.2 0 -0.2
v 0.1 0 -0.2
v -0.2 0 -0.4
v 0.1 0 -0.4
v -0.1 0.1 -0.1
v 0 0.1 -0.1
v -0.1 0.1 -0.2
v 0 0.1 -0.2
v -0.1 0.2 0
v 0 0.2 0
v -0.1 0.2 -0.1
v 0 0.2 -0.1
v -0.2 0.3 0.5
v 0.1 0.3 0.5
v -0.1 0.3 0
v 0 0.3 0
v -0.1 0.3 -0.1
v 0 0.3 -0.1
v -0.2 0.3 -0.2
v -0.1 0.3 -0.2
v 0.1 0.3 -0.2
v -0.2 0.3 -0.3
v -0.1 0.3 -0.3
v -0.1 0.2 -0.1
v 0 0.2 -0.1
v -0.2 0.2 -0.2
v -0.1 0.2 -0.2
v 0 0.2 -0.2
v -0.2 0.2 -0.3
v -0.1 0.2 -0.3
v -0.2 0.6 0.5
v -0.1 0.6 0.5
v 0 0.6 0.5
v 0.1 0.6 0.5
v -0.1 0.6 0.4
v 0 0.6 0.4
v -0.2 0.6 -0.3
v -0.1 0.6 -0.3
v 0 0.6 -0.3
v 0.1 0.6 -0.3
v -0.1 0.6 -0.4
v 0 0.6 -0.4
v -0.1 0.7 0.5
v 0 0.7 0.5
v -0.1 0.7 0.4
v 0 0.7 0.4
v -0.2 0.7 -0.3
v -0.1 0.7 -0.3
v 0 0.7 -0.3
v 0.1 0.7 -0.3
v -0.2 0.7 -0.4
v -0.1 0.7 -0.4
v 0 0.7 -0.4
v 0.1 0.7 -0.4

# faces
f 3/1/1 2/1/1 1/1/1
f 4/1/1 2/1/1 3/1/1
f 7/1/1 2/1/1 4/1/1
f 8/2/1 6/2/1 5/2/1
f 8/1/1 7/1/1 6/1/1
f 9/1/1 2/1/1 7/1/1
f 9/1/1 7/1/1 8/1/1
f 10/2/1 8/2/1 5/2/1
f 10/2/1 9/2/1 8/2/1
f 11/2/1 9/2/1 10/2/1
f 12/2/1 9/2/1 11/2/1
f 13/1/1 12/1/1 11/1/1
f 14/1/1 12/1/1 13/1/1
f 18/2/1 16/2/1 15/2/1
f 19/2/1 16/2/1 18/2/1
f 21/2/1 18/2/1 17/2/1
f 22/2/1 18/2/1 21/2/1
f 23/1/1 20/1/1 19/1/1
f 24/1/1 20/1/1 23/1/1
f 27/1/1 26/1/1 25/1/1
f 28/1/1 26/1/1 27/1/1
f 31/1/1 30/1/1 29/1/1
f 32/1/1 30/1/1 31/1/1
f 33/1/2 34/1/2 35/1/2
f 35/1/2 34/1/2 36/1/2
f 37/2/2 38/2/2 40/2/2
f 40/2/2 38/2/2 41/2/2
f 39/2/2 40/2/2 42/2/2
f 42/2/2 40/2/2 43/2/2
f 44/1/2 45/1/2 46/1/2
f 46/1/2 45/1/2 47/1/2
f 48/1/2 49/1/2 51/1/2
f 51/1/2 49/1/2 52/1/2
f 50/2/2 51/2/2 52/2/2
f 52/1/2 49/1/2 53/1/2
f 50/2/2 52/2/2 54/2/2
f 52/2/2 53/2/2 54/2/2
f 54/2/2 53/2/2 55/2/2
f 55/2/2 53/2/2 56/2/2
f 55/1/2 56/1/2 57/1/2
f 57/1/2 56/1/2 58/1/2
f 61/2/3 60/2/3 59/2/3
f 62/2/3 60/2/3 61/2/3
f 63/2/3 60/2/3 62/2/3
f 65/2/3 61/2/3 59/2/3
f 65/1/3 62/1/3 61/1/3
f 66/2/3 63/2/3 62/2/3
f 66/1/3 62/1/3 65/1/3
f 67/1/3 64/1/3 63/1/3
f 67/2/3 63/2/3 66/2/3
f 68/1/3 64/1/3 67/1/3
f 69/2/3 66/2/3 65/2/3
f 69/2/3 65/2/3 59/2/3
f 69/2/3 67/2/3 66/2/3
f 70/2/3 67/2/3 69/2/3
f 73/2/3 72/2/3 71/2/3
f 74/2/3 72/2/3 73/2/3
f 77/2/3 76/2/3 75/2/3
f 78/2/3 76/2/3 77/2/3
f 81/1/3 80/1/3 79/1/3
f 82/1/3 80/1/3 81/1/3
f 84/1/3 81/1/3 79/1/3
f 85/1/3 83/1/3 82/1/3
f 86/1/3 84/1/3 79/1/3
f 86/1/3 85/1/3 84/1/3
f 87/1/3 83/1/3 85/1/3
f 87/1/3 85/1/3 86/1/3
f 92/1/3 89/1/3 88/1/3
f 93/1/3 89/1/3 92/1/3
f 94/1/3 91/1/3 90/1/3
f 95/1/3 91/1/3 94/1/3
f 98/1/3 97/1/3 96/1/3
f 99/1/3 97/1/3 98/1/3
f 100/1/4 101/1/4 102/1/4
f 102/1/4 101/1/4 103/1/4
f 104/2/4 105/2/4 106/2/4
f 106/2/4 105/2/4 107/2/4
f 109/2/4 110/2/4 112/2/4
f 110/1/4 111/1/4 112/1/4
f 112/1/4 111/1/4 113/1/4
f 109/2/4 112/2/4 114/2/4
f 108/1/4 109/1/4 116/1/4
f 109/2/4 114/2/4 117/2/4
f 116/1/4 109/1/4 117/1/4
f 114/1/4 115/1/4 118/1/4
f 117/2/4 114/2/4 118/2/4
f 118/1/4 115/1/4 119/1/4
f 122/1/5 121/1/5 120/1/5
f 123/1/5 121/1/5 122/1/5
f 126/2/5 125/2/5 124/2/5
f 127/2/5 125/2/5 126/2/5
f 130/2/5 129/2/5 128/2/5
f 131/2/5 129/2/5 130/2/5
f 134/2/5 133/2/5 132/2/5
f 135/2/5 133/2/5 134/2/5
f 136/2/5 134/2/5 132/2/5
f 137/2/5 133/2/5 135/2/5
f 138/2/5 136/2/5 132/2/5
f 138/2/5 137/2/5 136/2/5
f 139/2/5 137/2/5 138/2/5
f 140/2/5 133/2/5 137/2/5
f 140/2/5 137/2/5 139/2/5
f 141/1/5 139/1/5 138/1/5
f 142/1/5 139/1/5 141/1/5
f 143/2/6 144/2/6 146/2/6
f 146/2/6 144/2/6 147/2/6
f 145/1/6 146/1/6 148/1/6
f 148/1/6 146/1/6 149/1/6
f 150/2/6 151/2/6 154/2/6
f 152/2/6 153/2/6 155/2/6
f 150/2/6 154/2/6 156/2/6
f 154/2/6 155/2/6 156/2/6
f 156/2/6 155/2/6 157/2/6
f 155/2/6 153/2/6 158/2/6
f 157/2/6 155/2/6 158/2/6
f 158/2/6 153/2/6 159/2/6
f 157/2/6 158/2/6 160/2/6
f 160/2/6 158/2/6 161/2/6
f 162/1/6 163/1/6 164/1/6
f 164/1/6 163/1/6 165/1/6
f 166/1/6 167/1/6 170/1/6
f 170/1/6 167/1/6 171/1/6
f 168/1/6 169/1/6 172/1/6
f 172/1/6 169/1/6 173/1/6
